<?xml version="1.0" encoding="UTF-8"?>
<svg version="1.1" xmlns="http://www.w3.org/2000/svg" width="32" height="32">
<path d="M0 0 C10.56 0 21.12 0 32 0 C32 10.56 32 21.12 32 32 C21.44 32 10.88 32 0 32 C0 21.44 0 10.88 0 0 Z " fill="#050505" transform="translate(0,0)"/>
<path d="M0 0 C6.48313087 5.86568984 6.48313087 5.86568984 6.75 10.5859375 C6.38303123 15.1883375 5.42486815 18.60126467 2.625 22.375 C-0.675 21.385 -3.975 20.395 -7.375 19.375 C-7.705 17.725 -8.035 16.075 -8.375 14.375 C-7.715 14.375 -7.055 14.375 -6.375 14.375 C-5.715 15.365 -5.055 16.355 -4.375 17.375 C-1.12516865 16.28715032 -1.12516865 16.28715032 1.625 14.375 C-0.52677479 11.99459914 -2.43773835 10.757237 -5.375 9.5 C-9.06326013 7.75044071 -10.56035466 6.10510431 -12.375 2.375 C-13.035 2.045 -13.695 1.715 -14.375 1.375 C-14.375 5.005 -14.375 8.635 -14.375 12.375 C-13.715 12.375 -13.055 12.375 -12.375 12.375 C-12.045 14.025 -11.715 15.675 -11.375 17.375 C-12.32375 17.66375 -13.2725 17.9525 -14.25 18.25 C-17.42711578 19.14325109 -17.42711578 19.14325109 -19.375 21.375 C-22.55745439 17.39693201 -22.99999853 13.82286193 -22.8671875 8.88671875 C-22.04869011 4.70978364 -19.65661205 1.98591762 -16.375 -0.625 C-10.79259548 -2.48580151 -5.32368031 -2.56325348 0 0 Z " fill="#F4F4F4" transform="translate(23.375,3.625)"/>
<path d="M0 0 C10.56 0 21.12 0 32 0 C32 6.93 32 13.86 32 21 C31.01 21 30.02 21 29 21 C29.06960937 20.12988281 29.06960937 20.12988281 29.140625 19.2421875 C29.40129681 13.60050472 28.88357735 10.40838511 25 6 C21.12474217 2.58065486 17.3356124 2.54865011 12.37109375 2.7109375 C8.30356772 3.20681382 6.06802799 4.80754157 3.390625 7.796875 C1.73299458 10.42300859 1.62647803 11.92073775 1.6875 15 C1.69136719 15.845625 1.69523438 16.69125 1.69921875 17.5625 C2.01423726 20.11537729 2.71603004 21.79013935 4 24 C5.32 23.34 6.64 22.68 8 22 C7.67 22.7425 7.34 23.485 7 24.25 C5.77217129 27.13883312 5.77217129 27.13883312 6 31 C5.34 31 4.68 31 4 31 C3.34 29.35 2.68 27.7 2 26 C1.34 26 0.68 26 0 26 C0 17.42 0 8.84 0 0 Z " fill="#090909" transform="translate(0,0)"/>
<path d="M0 0 C0.33 0.99 0.66 1.98 1 3 C0.34 3 -0.32 3 -1 3 C-1 6.63 -1 10.26 -1 14 C-0.34 14 0.32 14 1 14 C1.33 15.65 1.66 17.3 2 19 C1.05125 19.28875 0.1025 19.5775 -0.875 19.875 C-4.05211578 20.76825109 -4.05211578 20.76825109 -6 23 C-9.18245439 19.02193201 -9.62499853 15.44786193 -9.4921875 10.51171875 C-8.67369011 6.33478364 -6.28161205 3.61091762 -3 1 C-2.01 0.67 -1.02 0.34 0 0 Z " fill="#EEEEEE" transform="translate(10,2)"/>
<path d="M0 0 C3 1 3 1 4.1875 3.3125 C6.4238655 6.62849022 8.49947911 7.3538175 12.05859375 8.953125 C14.78552448 10.42358262 16.3023031 12.45345466 18 15 C13.25 16.125 13.25 16.125 11 15 C10.67 15.66 10.34 16.32 10 17 C9.34 15.68 8.68 14.36 8 13 C7.34 13 6.68 13 6 13 C6.33 14.65 6.66 16.3 7 18 C5.68 17.67 4.36 17.34 3 17 C2.67 15.02 2.34 13.04 2 11 C1.34 11 0.68 11 0 11 C0 7.37 0 3.74 0 0 Z " fill="#181818" transform="translate(9,5)"/>
<path d="M0 0 C5.61 0 11.22 0 17 0 C17 0.33 17 0.66 17 1 C16.33613281 1.14695313 15.67226562 1.29390625 14.98828125 1.4453125 C8.8847323 2.95866215 8.8847323 2.95866215 3.875 6.5625 C1.40114616 11.09789871 1.2050461 14.9290309 2 20 C2.95068795 22.23744239 2.95068795 22.23744239 4 24 C5.32 23.34 6.64 22.68 8 22 C7.67 22.7425 7.34 23.485 7 24.25 C5.77217129 27.13883312 5.77217129 27.13883312 6 31 C5.34 31 4.68 31 4 31 C3.34 29.35 2.68 27.7 2 26 C1.34 26 0.68 26 0 26 C0 17.42 0 8.84 0 0 Z " fill="#070707" transform="translate(0,0)"/>
<path d="M0 0 C0.33 0 0.66 0 1 0 C1.66 3.63 2.32 7.26 3 11 C3.66 11 4.32 11 5 11 C5.99 11 6.98 11 8 11 C7.67 11.5775 7.34 12.155 7 12.75 C5.72924102 15.19883862 5.72924102 15.19883862 6 19 C5.34 19 4.68 19 4 19 C3.34 17.35 2.68 15.7 2 14 C1.34 14 0.68 14 0 14 C0 9.38 0 4.76 0 0 Z " fill="#303030" transform="translate(0,12)"/>
<path d="M0 0 C0.66 0 1.32 0 2 0 C2.66 0.99 3.32 1.98 4 3 C5.65 2.34 7.3 1.68 9 1 C9.33 3.31 9.66 5.62 10 8 C7.03 7.01 4.06 6.02 1 5 C0.67 3.35 0.34 1.7 0 0 Z " fill="#AAAAAA" transform="translate(15,18)"/>
<path d="M0 0 C0 1.32 0 2.64 0 4 C-5.94 3.01 -5.94 3.01 -12 2 C-12 1.67 -12 1.34 -12 1 C-7.9472484 0.01751476 -4.16138263 -0.08159574 0 0 Z " fill="#202020" transform="translate(24,0)"/>
<path d="M0 0 C0.99 0 1.98 0 3 0 C2.50168276 3.68754757 1.89932357 5.60490662 -1 8 C-1.625 5.125 -1.625 5.125 -2 2 C-1.34 1.34 -0.68 0.68 0 0 Z " fill="#DDDDDD" transform="translate(26,18)"/>
</svg>
